<svg width="435" height="336" viewBox="0 0 435 336" fill="none" xmlns="http://www.w3.org/2000/svg">
<path d="M6.19318 2.43823H2.41675V8.84534H6.19318V2.43823Z" fill="#2A9D8F"/>
<path d="M19.033 0.836426H15.2566V7.24354H19.033V0.836426Z" fill="#2A9D8F"/>
<path d="M25.8306 0.836426H22.0542V7.24354H25.8306V0.836426Z" fill="#2A9D8F"/>
<path d="M25.8306 20.0578H22.0542V26.4649H25.8306V20.0578Z" fill="#2A9D8F"/>
<path d="M33.3835 10.4471H29.6071V16.8543H33.3835V10.4471Z" fill="#2A9D8F"/>
<path d="M33.3835 20.8586H29.6071V27.2657H33.3835V20.8586Z" fill="#2A9D8F"/>
<path d="M25.8306 40.8809H22.0542V47.288H25.8306V40.8809Z" fill="#2A9D8F"/>
<path d="M33.3835 51.2925H29.6071V57.6996H33.3835V51.2925Z" fill="#2A9D8F"/>
<path d="M25.8306 90.536H22.0542V96.9431H25.8306V90.536Z" fill="#2A9D8F"/>
<path d="M19.033 51.2925H15.2566V57.6996H19.033V51.2925Z" fill="#2A9D8F"/>
<path d="M6.19318 12.8498H2.41675V19.2569H6.19318V12.8498Z" fill="#2A9D8F"/>
<path d="M6.19318 112.961H2.41675V119.368H6.19318V112.961Z" fill="#2A9D8F"/>
<path d="M6.19318 133.784H2.41675V140.191H6.19318V133.784Z" fill="#2A9D8F"/>
<path d="M6.19318 144.196H2.41675V150.603H6.19318V144.196Z" fill="#2A9D8F"/>
<path d="M6.19319 24.0623H0.906189V24.8631H6.19319V24.0623Z" fill="#2A9D8F"/>
<path d="M26.5859 33.6729H21.2989V34.4738H26.5859V33.6729Z" fill="#2A9D8F"/>
<path d="M6.19319 75.3191H0.906189V76.12H6.19319V75.3191Z" fill="#2A9D8F"/>
<path d="M6.19319 84.1289H0.906189V84.9298H6.19319V84.1289Z" fill="#2A9D8F"/>
<path d="M26.5859 135.386H21.2989V136.187H26.5859V135.386Z" fill="#2A9D8F"/>
<path d="M20.5436 154.607H15.2566V155.408H20.5436V154.607Z" fill="#2A9D8F"/>
<path d="M2.41675 31.2704V32.872H3.92711V36.0756H2.41675V37.6772H6.19315V31.2704H2.41675Z" fill="#2A9D8F"/>
<path d="M15.2568 20.058V21.6595H16.7672V24.8632H15.2568V26.4648H19.0332V20.058H15.2568Z" fill="#2A9D8F"/>
<path d="M29.6073 30.4692V32.0713H31.1177V35.2749H29.6073V36.8765H33.3837V30.4692H29.6073Z" fill="#2A9D8F"/>
<path d="M29.6073 61.7042V63.3058H31.1177V66.5094H29.6073V68.111H33.3837V61.7042H29.6073Z" fill="#2A9D8F"/>
<path d="M29.6073 72.1155V73.7176H31.1177V76.9212H29.6073V78.5228H33.3837V72.1155H29.6073Z" fill="#2A9D8F"/>
<path d="M29.6073 40.0801V41.6816H31.1177V44.8853H29.6073V46.4874H33.3837V40.0801H29.6073Z" fill="#2A9D8F"/>
<path d="M22.054 10.447V12.0491H23.5648V15.2522H22.054V16.8543H25.8308V10.447H22.054Z" fill="#2A9D8F"/>
<path d="M25.8306 61.704H22.0542V68.1112H25.8306V61.704Z" fill="#2A9D8F"/>
<path d="M25.8306 80.9253H22.0542V87.3324H25.8306V80.9253Z" fill="#2A9D8F"/>
<path d="M22.054 71.3146V72.9162H23.5648V76.1198H22.054V77.7219H25.8308V71.3146H22.054Z" fill="#2A9D8F"/>
<path d="M15.2568 30.4692V32.0713H16.7672V35.2749H15.2568V36.8765H19.0332V30.4692H15.2568Z" fill="#2A9D8F"/>
<path d="M15.2568 40.8809V42.4829H16.7672V45.6861H15.2568V47.2881H19.0332V40.8809H15.2568Z" fill="#2A9D8F"/>
<path d="M19.033 72.1156H15.2566V78.5227H19.033V72.1156Z" fill="#2A9D8F"/>
<path d="M15.2568 61.7042V63.3058H16.7672V66.5094H15.2568V68.111H19.0332V61.7042H15.2568Z" fill="#2A9D8F"/>
<path d="M19.033 92.9387H15.2566V99.3458H19.033V92.9387Z" fill="#2A9D8F"/>
<path d="M15.2568 82.5271V84.1287H16.7672V87.3323H15.2568V88.9344H19.0332V82.5271H15.2568Z" fill="#2A9D8F"/>
<path d="M19.033 113.762H15.2566V120.169H19.033V113.762Z" fill="#2A9D8F"/>
<path d="M25.8306 112.16H22.0542V118.567H25.8306V112.16Z" fill="#2A9D8F"/>
<path d="M15.2568 103.35V104.952H16.7672V108.156H15.2568V109.757H19.0332V103.35H15.2568Z" fill="#2A9D8F"/>
<path d="M29.6073 103.35V104.952H31.1177V108.156H29.6073V109.757H33.3837V103.35H29.6073Z" fill="#2A9D8F"/>
<path d="M71.903 10.4471H68.1266V16.8543H71.903V10.4471Z" fill="#2A9D8F"/>
<path d="M71.903 20.8586H68.1266V27.2657H71.903V20.8586Z" fill="#2A9D8F"/>
<path d="M71.903 51.2925H68.1266V57.6996H71.903V51.2925Z" fill="#2A9D8F"/>
<path d="M68.1265 30.4692V32.0713H69.6373V35.2749H68.1265V36.8765H71.9029V30.4692H68.1265Z" fill="#2A9D8F"/>
<path d="M68.1265 61.7042V63.3058H69.6373V66.5094H68.1265V68.111H71.9029V61.7042H68.1265Z" fill="#2A9D8F"/>
<path d="M68.1265 72.1155V73.7176H69.6373V76.9212H68.1265V78.5228H71.9029V72.1155H68.1265Z" fill="#2A9D8F"/>
<path d="M68.1265 40.0801V41.6816H69.6373V44.8853H68.1265V46.4874H71.9029V40.0801H68.1265Z" fill="#2A9D8F"/>
<path d="M68.1265 103.35V104.952H69.6373V108.156H68.1265V109.757H71.9029V103.35H68.1265Z" fill="#2A9D8F"/>
<path d="M19.033 134.585H15.2566V140.992H19.033V134.585Z" fill="#2A9D8F"/>
<path d="M25.8306 122.572H22.0542V128.979H25.8306V122.572Z" fill="#2A9D8F"/>
<path d="M19.033 161.815H15.2566V168.222H19.033V161.815Z" fill="#2A9D8F"/>
<path d="M25.8306 142.594H22.0542V149.001H25.8306V142.594Z" fill="#2A9D8F"/>
<path d="M15.2568 124.173V125.775H16.7672V128.979H15.2568V130.581H19.0332V124.173H15.2568Z" fill="#2A9D8F"/>
<path d="M15.2568 173.028V174.629H16.7672V177.833H15.2568V179.434H19.0332V173.028H15.2568Z" fill="#2A9D8F"/>
<path d="M60.5738 0.836426H56.7974V7.24354H60.5738V0.836426Z" fill="#2A9D8F"/>
<path d="M60.5738 51.2925H56.7974V57.6996H60.5738V51.2925Z" fill="#2A9D8F"/>
<path d="M62.0843 154.607H56.7974V155.408H62.0843V154.607Z" fill="#2A9D8F"/>
<path d="M56.7972 20.058V21.6595H58.3081V24.8632H56.7972V26.4648H60.5736V20.058H56.7972Z" fill="#2A9D8F"/>
<path d="M56.7972 30.4692V32.0713H58.3081V35.2749H56.7972V36.8765H60.5736V30.4692H56.7972Z" fill="#2A9D8F"/>
<path d="M56.7972 40.8809V42.4829H58.3081V45.6861H56.7972V47.2881H60.5736V40.8809H56.7972Z" fill="#2A9D8F"/>
<path d="M60.5738 72.1156H56.7974V78.5227H60.5738V72.1156Z" fill="#2A9D8F"/>
<path d="M56.7972 61.7042V63.3058H58.3081V66.5094H56.7972V68.111H60.5736V61.7042H56.7972Z" fill="#2A9D8F"/>
<path d="M60.5738 92.9387H56.7974V99.3458H60.5738V92.9387Z" fill="#2A9D8F"/>
<path d="M56.7972 82.5271V84.1287H58.3081V87.3323H56.7972V88.9344H60.5736V82.5271H56.7972Z" fill="#2A9D8F"/>
<path d="M60.5738 113.762H56.7974V120.169H60.5738V113.762Z" fill="#2A9D8F"/>
<path d="M56.7972 103.35V104.952H58.3081V108.156H56.7972V109.757H60.5736V103.35H56.7972Z" fill="#2A9D8F"/>
<path d="M60.5738 134.585H56.7974V140.992H60.5738V134.585Z" fill="#2A9D8F"/>
<path d="M60.5738 161.815H56.7974V168.222H60.5738V161.815Z" fill="#2A9D8F"/>
<path d="M56.7972 124.173V125.775H58.3081V128.979H56.7972V130.581H60.5736V124.173H56.7972Z" fill="#2A9D8F"/>
<path d="M56.7972 173.028V174.629H58.3081V177.833H56.7972V179.434H60.5736V173.028H56.7972Z" fill="#2A9D8F"/>
<path d="M78.7006 0.836426H74.9242V7.24354H78.7006V0.836426Z" fill="#2A9D8F"/>
<path d="M78.7006 51.2925H74.9242V57.6996H78.7006V51.2925Z" fill="#2A9D8F"/>
<path d="M80.2112 154.607H74.9242V155.408H80.2112V154.607Z" fill="#2A9D8F"/>
<path d="M74.9241 20.058V21.6595H76.4349V24.8632H74.9241V26.4648H78.7005V20.058H74.9241Z" fill="#2A9D8F"/>
<path d="M74.9241 30.4692V32.0713H76.4349V35.2749H74.9241V36.8765H78.7005V30.4692H74.9241Z" fill="#2A9D8F"/>
<path d="M74.9241 40.8809V42.4829H76.4349V45.6861H74.9241V47.2881H78.7005V40.8809H74.9241Z" fill="#2A9D8F"/>
<path d="M78.7006 72.1156H74.9242V78.5227H78.7006V72.1156Z" fill="#2A9D8F"/>
<path d="M74.9241 61.7042V63.3058H76.4349V66.5094H74.9241V68.111H78.7005V61.7042H74.9241Z" fill="#2A9D8F"/>
<path d="M78.7006 92.9387H74.9242V99.3458H78.7006V92.9387Z" fill="#2A9D8F"/>
<path d="M74.9241 82.5271V84.1287H76.4349V87.3323H74.9241V88.9344H78.7005V82.5271H74.9241Z" fill="#2A9D8F"/>
<path d="M78.7006 113.762H74.9242V120.169H78.7006V113.762Z" fill="#2A9D8F"/>
<path d="M74.9241 103.35V104.952H76.4349V108.156H74.9241V109.757H78.7005V103.35H74.9241Z" fill="#2A9D8F"/>
<path d="M78.7006 134.585H74.9242V140.992H78.7006V134.585Z" fill="#2A9D8F"/>
<path d="M78.7006 161.815H74.9242V168.222H78.7006V161.815Z" fill="#2A9D8F"/>
<path d="M74.9241 124.173V125.775H76.4349V128.979H74.9241V130.581H78.7005V124.173H74.9241Z" fill="#2A9D8F"/>
<path d="M74.9241 173.028V174.629H76.4349V177.833H74.9241V179.434H78.7005V173.028H74.9241Z" fill="#2A9D8F"/>
<path d="M22.054 161.815V163.417H23.5648V166.62H22.054V168.222H25.8308V161.815H22.054Z" fill="#2A9D8F"/>
<path d="M22.054 172.227V173.828H23.5648V177.032H22.054V178.634H25.8308V172.227H22.054Z" fill="#2A9D8F"/>
<path d="M2.41675 51.2925V52.8941H3.92711V56.0977H2.41675V57.6998H6.19315V51.2925H2.41675Z" fill="#2A9D8F"/>
<path d="M2.41675 92.1381V93.7396H3.92711V96.9433H2.41675V98.5448H6.19315V92.1381H2.41675Z" fill="#2A9D8F"/>
<path d="M2.41675 102.549V104.151H3.92711V107.355H2.41675V108.956H6.19315V102.549H2.41675Z" fill="#2A9D8F"/>
<path d="M2.41675 123.373V124.974H3.92711V128.178H2.41675V129.779H6.19315V123.373H2.41675Z" fill="#2A9D8F"/>
<path d="M2.41675 153.005V154.607H3.92711V157.811H2.41675V159.412H6.19315V153.005H2.41675Z" fill="#2A9D8F"/>
<path d="M2.41675 161.815V163.417H3.92711V166.62H2.41675V168.222H6.19315V161.815H2.41675Z" fill="#2A9D8F"/>
<path d="M45.4681 2.43823H41.6917V8.84534H45.4681V2.43823Z" fill="#2A9D8F"/>
<path d="M45.4681 12.8498H41.6917V19.2569H45.4681V12.8498Z" fill="#2A9D8F"/>
<path d="M45.468 24.0623H40.181V24.8631H45.468V24.0623Z" fill="#2A9D8F"/>
<path d="M45.468 75.3191H40.181V76.12H45.468V75.3191Z" fill="#2A9D8F"/>
<path d="M45.468 84.1289H40.181V84.9298H45.468V84.1289Z" fill="#2A9D8F"/>
<path d="M41.6917 31.2704V32.872H43.202V36.0756H41.6917V37.6772H45.468V31.2704H41.6917Z" fill="#2A9D8F"/>
<path d="M41.6917 51.2925V52.8941H43.202V56.0977H41.6917V57.6998H45.468V51.2925H41.6917Z" fill="#2A9D8F"/>
<path d="M41.6917 92.1381V93.7396H43.202V96.9433H41.6917V98.5448H45.468V92.1381H41.6917Z" fill="#2A9D8F"/>
<path d="M88.5194 72.1156H84.7429V78.5227H88.5194V72.1156Z" fill="#2A9D8F"/>
<path d="M88.5194 82.5271H84.7429V88.9342H88.5194V82.5271Z" fill="#2A9D8F"/>
<path d="M88.5193 93.7396H83.2323V94.5405H88.5193V93.7396Z" fill="#2A9D8F"/>
<path d="M88.5193 144.996H83.2323V145.797H88.5193V144.996Z" fill="#2A9D8F"/>
<path d="M88.5193 153.806H83.2323V154.607H88.5193V153.806Z" fill="#2A9D8F"/>
<path d="M84.7429 100.948V102.549H86.2533V105.753H84.7429V107.355H88.5193V100.948H84.7429Z" fill="#2A9D8F"/>
<path d="M84.7429 120.97V122.572H86.2533V125.775H84.7429V127.377H88.5193V120.97H84.7429Z" fill="#2A9D8F"/>
<path d="M84.7429 161.815V163.417H86.2533V166.62H84.7429V168.222H88.5193V161.815H84.7429Z" fill="#2A9D8F"/>
<path d="M100.604 2.43823H96.8275V8.84534H100.604V2.43823Z" fill="#2A9D8F"/>
<path d="M113.444 0.836426H109.667V7.24354H113.444V0.836426Z" fill="#2A9D8F"/>
<path d="M120.241 0.836426H116.465V7.24354H120.241V0.836426Z" fill="#2A9D8F"/>
<path d="M120.241 20.0578H116.465V26.4649H120.241V20.0578Z" fill="#2A9D8F"/>
<path d="M127.794 10.4471H124.018V16.8543H127.794V10.4471Z" fill="#2A9D8F"/>
<path d="M127.794 20.8586H124.018V27.2657H127.794V20.8586Z" fill="#2A9D8F"/>
<path d="M120.241 40.8809H116.465V47.288H120.241V40.8809Z" fill="#2A9D8F"/>
<path d="M127.794 51.2925H124.018V57.6996H127.794V51.2925Z" fill="#2A9D8F"/>
<path d="M120.241 90.536H116.465V96.9431H120.241V90.536Z" fill="#2A9D8F"/>
<path d="M113.444 51.2925H109.667V57.6996H113.444V51.2925Z" fill="#2A9D8F"/>
<path d="M100.604 12.8498H96.8275V19.2569H100.604V12.8498Z" fill="#2A9D8F"/>
<path d="M100.604 112.961H96.8275V119.368H100.604V112.961Z" fill="#2A9D8F"/>
<path d="M100.604 133.784H96.8275V140.191H100.604V133.784Z" fill="#2A9D8F"/>
<path d="M100.604 144.196H96.8275V150.603H100.604V144.196Z" fill="#2A9D8F"/>
<path d="M100.604 24.0623H95.3169V24.8631H100.604V24.0623Z" fill="#2A9D8F"/>
<path d="M120.997 33.6729H115.71V34.4738H120.997V33.6729Z" fill="#2A9D8F"/>
<path d="M100.604 75.3191H95.3169V76.12H100.604V75.3191Z" fill="#2A9D8F"/>
<path d="M100.604 84.1289H95.3169V84.9298H100.604V84.1289Z" fill="#2A9D8F"/>
<path d="M120.997 135.386H115.71V136.187H120.997V135.386Z" fill="#2A9D8F"/>
<path d="M114.954 154.607H109.667V155.408H114.954V154.607Z" fill="#2A9D8F"/>
<path d="M96.8273 31.2704V32.872H98.3382V36.0756H96.8273V37.6772H100.604V31.2704H96.8273Z" fill="#2A9D8F"/>
<path d="M109.667 20.058V21.6595H111.178V24.8632H109.667V26.4648H113.444V20.058H109.667Z" fill="#2A9D8F"/>
<path d="M124.018 30.4692V32.0713H125.528V35.2749H124.018V36.8765H127.794V30.4692H124.018Z" fill="#2A9D8F"/>
<path d="M124.018 61.7042V63.3058H125.528V66.5094H124.018V68.111H127.794V61.7042H124.018Z" fill="#2A9D8F"/>
<path d="M124.018 72.1155V73.7176H125.528V76.9212H124.018V78.5228H127.794V72.1155H124.018Z" fill="#2A9D8F"/>
<path d="M124.018 40.0801V41.6816H125.528V44.8853H124.018V46.4874H127.794V40.0801H124.018Z" fill="#2A9D8F"/>
<path d="M116.465 10.447V12.0491H117.975V15.2522H116.465V16.8543H120.241V10.447H116.465Z" fill="#2A9D8F"/>
<path d="M120.241 61.704H116.465V68.1112H120.241V61.704Z" fill="#2A9D8F"/>
<path d="M120.241 80.9253H116.465V87.3324H120.241V80.9253Z" fill="#2A9D8F"/>
<path d="M116.465 71.3146V72.9162H117.975V76.1198H116.465V77.7219H120.241V71.3146H116.465Z" fill="#2A9D8F"/>
<path d="M109.667 30.4692V32.0713H111.178V35.2749H109.667V36.8765H113.444V30.4692H109.667Z" fill="#2A9D8F"/>
<path d="M109.667 40.8809V42.4829H111.178V45.6861H109.667V47.2881H113.444V40.8809H109.667Z" fill="#2A9D8F"/>
<path d="M113.444 72.1156H109.667V78.5227H113.444V72.1156Z" fill="#2A9D8F"/>
<path d="M109.667 61.7042V63.3058H111.178V66.5094H109.667V68.111H113.444V61.7042H109.667Z" fill="#2A9D8F"/>
<path d="M113.444 92.9387H109.667V99.3458H113.444V92.9387Z" fill="#2A9D8F"/>
<path d="M109.667 82.5271V84.1287H111.178V87.3323H109.667V88.9344H113.444V82.5271H109.667Z" fill="#2A9D8F"/>
<path d="M113.444 113.762H109.667V120.169H113.444V113.762Z" fill="#2A9D8F"/>
<path d="M120.241 112.16H116.465V118.567H120.241V112.16Z" fill="#2A9D8F"/>
<path d="M109.667 103.35V104.952H111.178V108.156H109.667V109.757H113.444V103.35H109.667Z" fill="#2A9D8F"/>
<path d="M124.018 103.35V104.952H125.528V108.156H124.018V109.757H127.794V103.35H124.018Z" fill="#2A9D8F"/>
<path d="M166.314 10.4471H162.537V16.8543H166.314V10.4471Z" fill="#2A9D8F"/>
<path d="M166.314 20.8586H162.537V27.2657H166.314V20.8586Z" fill="#2A9D8F"/>
<path d="M166.314 51.2925H162.537V57.6996H166.314V51.2925Z" fill="#2A9D8F"/>
<path d="M162.538 30.4692V32.0713H164.048V35.2749H162.538V36.8765H166.314V30.4692H162.538Z" fill="#2A9D8F"/>
<path d="M162.538 61.7042V63.3058H164.048V66.5094H162.538V68.111H166.314V61.7042H162.538Z" fill="#2A9D8F"/>
<path d="M162.538 72.1155V73.7176H164.048V76.9212H162.538V78.5228H166.314V72.1155H162.538Z" fill="#2A9D8F"/>
<path d="M162.538 40.0801V41.6816H164.048V44.8853H162.538V46.4874H166.314V40.0801H162.538Z" fill="#2A9D8F"/>
<path d="M162.538 103.35V104.952H164.048V108.156H162.538V109.757H166.314V103.35H162.538Z" fill="#2A9D8F"/>
<path d="M113.444 134.585H109.667V140.992H113.444V134.585Z" fill="#2A9D8F"/>
<path d="M120.241 122.572H116.465V128.979H120.241V122.572Z" fill="#2A9D8F"/>
<path d="M113.444 161.815H109.667V168.222H113.444V161.815Z" fill="#2A9D8F"/>
<path d="M120.241 142.594H116.465V149.001H120.241V142.594Z" fill="#2A9D8F"/>
<path d="M109.667 124.173V125.775H111.178V128.979H109.667V130.581H113.444V124.173H109.667Z" fill="#2A9D8F"/>
<path d="M109.667 173.028V174.629H111.178V177.833H109.667V179.434H113.444V173.028H109.667Z" fill="#2A9D8F"/>
<path d="M154.984 0.836426H151.208V7.24354H154.984V0.836426Z" fill="#2A9D8F"/>
<path d="M154.984 51.2925H151.208V57.6996H154.984V51.2925Z" fill="#2A9D8F"/>
<path d="M156.495 154.607H151.208V155.408H156.495V154.607Z" fill="#2A9D8F"/>
<path d="M151.208 20.058V21.6595H152.719V24.8632H151.208V26.4648H154.984V20.058H151.208Z" fill="#2A9D8F"/>
<path d="M151.208 30.4692V32.0713H152.719V35.2749H151.208V36.8765H154.984V30.4692H151.208Z" fill="#2A9D8F"/>
<path d="M151.208 40.8809V42.4829H152.719V45.6861H151.208V47.2881H154.984V40.8809H151.208Z" fill="#2A9D8F"/>
<path d="M154.984 72.1156H151.208V78.5227H154.984V72.1156Z" fill="#2A9D8F"/>
<path d="M151.208 61.7042V63.3058H152.719V66.5094H151.208V68.111H154.984V61.7042H151.208Z" fill="#2A9D8F"/>
<path d="M154.984 92.9387H151.208V99.3458H154.984V92.9387Z" fill="#2A9D8F"/>
<path d="M151.208 82.5271V84.1287H152.719V87.3323H151.208V88.9344H154.984V82.5271H151.208Z" fill="#2A9D8F"/>
<path d="M154.984 113.762H151.208V120.169H154.984V113.762Z" fill="#2A9D8F"/>
<path d="M151.208 103.35V104.952H152.719V108.156H151.208V109.757H154.984V103.35H151.208Z" fill="#2A9D8F"/>
<path d="M154.984 134.585H151.208V140.992H154.984V134.585Z" fill="#2A9D8F"/>
<path d="M154.984 161.815H151.208V168.222H154.984V161.815Z" fill="#2A9D8F"/>
<path d="M151.208 124.173V125.775H152.719V128.979H151.208V130.581H154.984V124.173H151.208Z" fill="#2A9D8F"/>
<path d="M151.208 173.028V174.629H152.719V177.833H151.208V179.434H154.984V173.028H151.208Z" fill="#2A9D8F"/>
<path d="M173.111 0.836426H169.335V7.24354H173.111V0.836426Z" fill="#2A9D8F"/>
<path d="M173.111 51.2925H169.335V57.6996H173.111V51.2925Z" fill="#2A9D8F"/>
<path d="M174.622 154.607H169.335V155.408H174.622V154.607Z" fill="#2A9D8F"/>
<path d="M169.335 20.058V21.6595H170.846V24.8632H169.335V26.4648H173.111V20.058H169.335Z" fill="#2A9D8F"/>
<path d="M169.335 30.4692V32.0713H170.846V35.2749H169.335V36.8765H173.111V30.4692H169.335Z" fill="#2A9D8F"/>
<path d="M169.335 40.8809V42.4829H170.846V45.6861H169.335V47.2881H173.111V40.8809H169.335Z" fill="#2A9D8F"/>
<path d="M173.111 72.1156H169.335V78.5227H173.111V72.1156Z" fill="#2A9D8F"/>
<path d="M169.335 61.7042V63.3058H170.846V66.5094H169.335V68.111H173.111V61.7042H169.335Z" fill="#2A9D8F"/>
<path d="M173.111 92.9387H169.335V99.3458H173.111V92.9387Z" fill="#2A9D8F"/>
<path d="M169.335 82.5271V84.1287H170.846V87.3323H169.335V88.9344H173.111V82.5271H169.335Z" fill="#2A9D8F"/>
<path d="M173.111 113.762H169.335V120.169H173.111V113.762Z" fill="#2A9D8F"/>
<path d="M169.335 103.35V104.952H170.846V108.156H169.335V109.757H173.111V103.35H169.335Z" fill="#2A9D8F"/>
<path d="M173.111 134.585H169.335V140.992H173.111V134.585Z" fill="#2A9D8F"/>
<path d="M173.111 161.815H169.335V168.222H173.111V161.815Z" fill="#2A9D8F"/>
<path d="M169.335 124.173V125.775H170.846V128.979H169.335V130.581H173.111V124.173H169.335Z" fill="#2A9D8F"/>
<path d="M169.335 173.028V174.629H170.846V177.833H169.335V179.434H173.111V173.028H169.335Z" fill="#2A9D8F"/>
<path d="M116.465 161.815V163.417H117.975V166.62H116.465V168.222H120.241V161.815H116.465Z" fill="#2A9D8F"/>
<path d="M116.465 172.227V173.828H117.975V177.032H116.465V178.634H120.241V172.227H116.465Z" fill="#2A9D8F"/>
<path d="M96.8273 51.2925V52.8941H98.3382V56.0977H96.8273V57.6998H100.604V51.2925H96.8273Z" fill="#2A9D8F"/>
<path d="M96.8273 92.1381V93.7396H98.3382V96.9433H96.8273V98.5448H100.604V92.1381H96.8273Z" fill="#2A9D8F"/>
<path d="M96.8273 102.549V104.151H98.3382V107.355H96.8273V108.956H100.604V102.549H96.8273Z" fill="#2A9D8F"/>
<path d="M96.8273 123.373V124.974H98.3382V128.178H96.8273V129.779H100.604V123.373H96.8273Z" fill="#2A9D8F"/>
<path d="M96.8273 153.005V154.607H98.3382V157.811H96.8273V159.412H100.604V153.005H96.8273Z" fill="#2A9D8F"/>
<path d="M96.8273 161.815V163.417H98.3382V166.62H96.8273V168.222H100.604V161.815H96.8273Z" fill="#2A9D8F"/>
<path d="M139.879 2.43823H136.102V8.84534H139.879V2.43823Z" fill="#2A9D8F"/>
<path d="M139.879 12.8498H136.102V19.2569H139.879V12.8498Z" fill="#2A9D8F"/>
<path d="M139.879 24.0623H134.592V24.8631H139.879V24.0623Z" fill="#2A9D8F"/>
<path d="M139.879 75.3191H134.592V76.12H139.879V75.3191Z" fill="#2A9D8F"/>
<path d="M139.879 84.1289H134.592V84.9298H139.879V84.1289Z" fill="#2A9D8F"/>
<path d="M136.102 31.2704V32.872H137.613V36.0756H136.102V37.6772H139.879V31.2704H136.102Z" fill="#2A9D8F"/>
<path d="M136.102 51.2925V52.8941H137.613V56.0977H136.102V57.6998H139.879V51.2925H136.102Z" fill="#2A9D8F"/>
<path d="M136.102 92.1381V93.7396H137.613V96.9433H136.102V98.5448H139.879V92.1381H136.102Z" fill="#2A9D8F"/>
<path d="M182.93 72.1156H179.154V78.5227H182.93V72.1156Z" fill="#2A9D8F"/>
<path d="M182.93 82.5271H179.154V88.9342H182.93V82.5271Z" fill="#2A9D8F"/>
<path d="M182.93 93.7396H177.643V94.5405H182.93V93.7396Z" fill="#2A9D8F"/>
<path d="M182.93 144.996H177.643V145.797H182.93V144.996Z" fill="#2A9D8F"/>
<path d="M182.93 153.806H177.643V154.607H182.93V153.806Z" fill="#2A9D8F"/>
<path d="M179.154 100.948V102.549H180.664V105.753H179.154V107.355H182.93V100.948H179.154Z" fill="#2A9D8F"/>
<path d="M179.154 120.97V122.572H180.664V125.775H179.154V127.377H182.93V120.97H179.154Z" fill="#2A9D8F"/>
<path d="M179.154 161.815V163.417H180.664V166.62H179.154V168.222H182.93V161.815H179.154Z" fill="#2A9D8F"/>
<path d="M195.015 2.43823H191.238V8.84534H195.015V2.43823Z" fill="#2A9D8F"/>
<path d="M207.854 0.836426H204.078V7.24354H207.854V0.836426Z" fill="#2A9D8F"/>
<path d="M214.652 0.836426H210.876V7.24354H214.652V0.836426Z" fill="#2A9D8F"/>
<path d="M214.652 20.0578H210.876V26.4649H214.652V20.0578Z" fill="#2A9D8F"/>
<path d="M222.205 10.4471H218.428V16.8543H222.205V10.4471Z" fill="#2A9D8F"/>
<path d="M222.205 20.8586H218.428V27.2657H222.205V20.8586Z" fill="#2A9D8F"/>
<path d="M214.652 40.8809H210.876V47.288H214.652V40.8809Z" fill="#2A9D8F"/>
<path d="M222.205 51.2925H218.428V57.6996H222.205V51.2925Z" fill="#2A9D8F"/>
<path d="M214.652 90.536H210.876V96.9431H214.652V90.536Z" fill="#2A9D8F"/>
<path d="M207.854 51.2925H204.078V57.6996H207.854V51.2925Z" fill="#2A9D8F"/>
<path d="M195.015 12.8498H191.238V19.2569H195.015V12.8498Z" fill="#2A9D8F"/>
<path d="M195.015 112.961H191.238V119.368H195.015V112.961Z" fill="#2A9D8F"/>
<path d="M195.015 133.784H191.238V140.191H195.015V133.784Z" fill="#2A9D8F"/>
<path d="M195.015 144.196H191.238V150.603H195.015V144.196Z" fill="#2A9D8F"/>
<path d="M195.015 24.0623H189.728V24.8631H195.015V24.0623Z" fill="#2A9D8F"/>
<path d="M215.407 33.6729H210.12V34.4738H215.407V33.6729Z" fill="#2A9D8F"/>
<path d="M195.015 75.3191H189.728V76.12H195.015V75.3191Z" fill="#2A9D8F"/>
<path d="M195.015 84.1289H189.728V84.9298H195.015V84.1289Z" fill="#2A9D8F"/>
<path d="M215.407 135.386H210.12V136.187H215.407V135.386Z" fill="#2A9D8F"/>
<path d="M209.365 154.607H204.078V155.408H209.365V154.607Z" fill="#2A9D8F"/>
<path d="M191.238 31.2704V32.872H192.749V36.0756H191.238V37.6772H195.015V31.2704H191.238Z" fill="#2A9D8F"/>
<path d="M204.078 20.058V21.6595H205.588V24.8632H204.078V26.4648H207.854V20.058H204.078Z" fill="#2A9D8F"/>
<path d="M218.428 30.4692V32.0713H219.939V35.2749H218.428V36.8765H222.205V30.4692H218.428Z" fill="#2A9D8F"/>
<path d="M218.428 61.7042V63.3058H219.939V66.5094H218.428V68.111H222.205V61.7042H218.428Z" fill="#2A9D8F"/>
<path d="M218.428 72.1155V73.7176H219.939V76.9212H218.428V78.5228H222.205V72.1155H218.428Z" fill="#2A9D8F"/>
<path d="M218.428 40.0801V41.6816H219.939V44.8853H218.428V46.4874H222.205V40.0801H218.428Z" fill="#2A9D8F"/>
<path d="M210.876 10.447V12.0491H212.386V15.2522H210.876V16.8543H214.652V10.447H210.876Z" fill="#2A9D8F"/>
<path d="M214.652 61.704H210.876V68.1112H214.652V61.704Z" fill="#2A9D8F"/>
<path d="M214.652 80.9253H210.876V87.3324H214.652V80.9253Z" fill="#2A9D8F"/>
<path d="M210.876 71.3146V72.9162H212.386V76.1198H210.876V77.7219H214.652V71.3146H210.876Z" fill="#2A9D8F"/>
<path d="M204.078 30.4692V32.0713H205.588V35.2749H204.078V36.8765H207.854V30.4692H204.078Z" fill="#2A9D8F"/>
<path d="M204.078 40.8809V42.4829H205.588V45.6861H204.078V47.2881H207.854V40.8809H204.078Z" fill="#2A9D8F"/>
<path d="M207.854 72.1156H204.078V78.5227H207.854V72.1156Z" fill="#2A9D8F"/>
<path d="M204.078 61.7042V63.3058H205.588V66.5094H204.078V68.111H207.854V61.7042H204.078Z" fill="#2A9D8F"/>
<path d="M207.854 92.9387H204.078V99.3458H207.854V92.9387Z" fill="#2A9D8F"/>
<path d="M204.078 82.5271V84.1287H205.588V87.3323H204.078V88.9344H207.854V82.5271H204.078Z" fill="#2A9D8F"/>
<path d="M207.854 113.762H204.078V120.169H207.854V113.762Z" fill="#2A9D8F"/>
<path d="M214.652 112.16H210.876V118.567H214.652V112.16Z" fill="#2A9D8F"/>
<path d="M204.078 103.35V104.952H205.588V108.156H204.078V109.757H207.854V103.35H204.078Z" fill="#2A9D8F"/>
<path d="M218.428 103.35V104.952H219.939V108.156H218.428V109.757H222.205V103.35H218.428Z" fill="#2A9D8F"/>
<path d="M260.724 10.4471H256.948V16.8543H260.724V10.4471Z" fill="#2A9D8F"/>
<path d="M260.724 20.8586H256.948V27.2657H260.724V20.8586Z" fill="#2A9D8F"/>
<path d="M260.724 51.2925H256.948V57.6996H260.724V51.2925Z" fill="#2A9D8F"/>
<path d="M256.948 30.4692V32.0713H258.459V35.2749H256.948V36.8765H260.725V30.4692H256.948Z" fill="#2A9D8F"/>
<path d="M256.948 61.7042V63.3058H258.459V66.5094H256.948V68.111H260.725V61.7042H256.948Z" fill="#2A9D8F"/>
<path d="M256.948 72.1155V73.7176H258.459V76.9212H256.948V78.5228H260.725V72.1155H256.948Z" fill="#2A9D8F"/>
<path d="M256.948 40.0801V41.6816H258.459V44.8853H256.948V46.4874H260.725V40.0801H256.948Z" fill="#2A9D8F"/>
<path d="M256.948 103.35V104.952H258.459V108.156H256.948V109.757H260.725V103.35H256.948Z" fill="#2A9D8F"/>
<path d="M207.854 134.585H204.078V140.992H207.854V134.585Z" fill="#2A9D8F"/>
<path d="M214.652 122.572H210.876V128.979H214.652V122.572Z" fill="#2A9D8F"/>
<path d="M207.854 161.815H204.078V168.222H207.854V161.815Z" fill="#2A9D8F"/>
<path d="M214.652 142.594H210.876V149.001H214.652V142.594Z" fill="#2A9D8F"/>
<path d="M204.078 124.173V125.775H205.588V128.979H204.078V130.581H207.854V124.173H204.078Z" fill="#2A9D8F"/>
<path d="M204.078 173.028V174.629H205.588V177.833H204.078V179.434H207.854V173.028H204.078Z" fill="#2A9D8F"/>
<path d="M249.395 0.836426H245.619V7.24354H249.395V0.836426Z" fill="#2A9D8F"/>
<path d="M249.395 51.2925H245.619V57.6996H249.395V51.2925Z" fill="#2A9D8F"/>
<path d="M250.906 154.607H245.619V155.408H250.906V154.607Z" fill="#2A9D8F"/>
<path d="M245.619 20.058V21.6595H247.129V24.8632H245.619V26.4648H249.395V20.058H245.619Z" fill="#2A9D8F"/>
<path d="M245.619 30.4692V32.0713H247.129V35.2749H245.619V36.8765H249.395V30.4692H245.619Z" fill="#2A9D8F"/>
<path d="M245.619 40.8809V42.4829H247.129V45.6861H245.619V47.2881H249.395V40.8809H245.619Z" fill="#2A9D8F"/>
<path d="M249.395 72.1156H245.619V78.5227H249.395V72.1156Z" fill="#2A9D8F"/>
<path d="M245.619 61.7042V63.3058H247.129V66.5094H245.619V68.111H249.395V61.7042H245.619Z" fill="#2A9D8F"/>
<path d="M249.395 92.9387H245.619V99.3458H249.395V92.9387Z" fill="#2A9D8F"/>
<path d="M245.619 82.5271V84.1287H247.129V87.3323H245.619V88.9344H249.395V82.5271H245.619Z" fill="#2A9D8F"/>
<path d="M249.395 113.762H245.619V120.169H249.395V113.762Z" fill="#2A9D8F"/>
<path d="M245.619 103.35V104.952H247.129V108.156H245.619V109.757H249.395V103.35H245.619Z" fill="#2A9D8F"/>
<path d="M249.395 134.585H245.619V140.992H249.395V134.585Z" fill="#2A9D8F"/>
<path d="M249.395 161.815H245.619V168.222H249.395V161.815Z" fill="#2A9D8F"/>
<path d="M245.619 124.173V125.775H247.129V128.979H245.619V130.581H249.395V124.173H245.619Z" fill="#2A9D8F"/>
<path d="M245.619 173.028V174.629H247.129V177.833H245.619V179.434H249.395V173.028H245.619Z" fill="#2A9D8F"/>
<path d="M267.522 0.836426H263.746V7.24354H267.522V0.836426Z" fill="#2A9D8F"/>
<path d="M267.522 51.2925H263.746V57.6996H267.522V51.2925Z" fill="#2A9D8F"/>
<path d="M269.033 154.607H263.746V155.408H269.033V154.607Z" fill="#2A9D8F"/>
<path d="M263.746 20.058V21.6595H265.256V24.8632H263.746V26.4648H267.522V20.058H263.746Z" fill="#2A9D8F"/>
<path d="M263.746 30.4692V32.0713H265.256V35.2749H263.746V36.8765H267.522V30.4692H263.746Z" fill="#2A9D8F"/>
<path d="M263.746 40.8809V42.4829H265.256V45.6861H263.746V47.2881H267.522V40.8809H263.746Z" fill="#2A9D8F"/>
<path d="M267.522 72.1156H263.746V78.5227H267.522V72.1156Z" fill="#2A9D8F"/>
<path d="M263.746 61.7042V63.3058H265.256V66.5094H263.746V68.111H267.522V61.7042H263.746Z" fill="#2A9D8F"/>
<path d="M267.522 92.9387H263.746V99.3458H267.522V92.9387Z" fill="#2A9D8F"/>
<path d="M263.746 82.5271V84.1287H265.256V87.3323H263.746V88.9344H267.522V82.5271H263.746Z" fill="#2A9D8F"/>
<path d="M267.522 113.762H263.746V120.169H267.522V113.762Z" fill="#2A9D8F"/>
<path d="M263.746 103.35V104.952H265.256V108.156H263.746V109.757H267.522V103.35H263.746Z" fill="#2A9D8F"/>
<path d="M267.522 134.585H263.746V140.992H267.522V134.585Z" fill="#2A9D8F"/>
<path d="M267.522 161.815H263.746V168.222H267.522V161.815Z" fill="#2A9D8F"/>
<path d="M263.746 124.173V125.775H265.256V128.979H263.746V130.581H267.522V124.173H263.746Z" fill="#2A9D8F"/>
<path d="M263.746 173.028V174.629H265.256V177.833H263.746V179.434H267.522V173.028H263.746Z" fill="#2A9D8F"/>
<path d="M210.876 161.815V163.417H212.386V166.62H210.876V168.222H214.652V161.815H210.876Z" fill="#2A9D8F"/>
<path d="M210.876 172.227V173.828H212.386V177.032H210.876V178.634H214.652V172.227H210.876Z" fill="#2A9D8F"/>
<path d="M191.238 51.2925V52.8941H192.749V56.0977H191.238V57.6998H195.015V51.2925H191.238Z" fill="#2A9D8F"/>
<path d="M191.238 92.1381V93.7396H192.749V96.9433H191.238V98.5448H195.015V92.1381H191.238Z" fill="#2A9D8F"/>
<path d="M191.238 102.549V104.151H192.749V107.355H191.238V108.956H195.015V102.549H191.238Z" fill="#2A9D8F"/>
<path d="M191.238 123.373V124.974H192.749V128.178H191.238V129.779H195.015V123.373H191.238Z" fill="#2A9D8F"/>
<path d="M191.238 153.005V154.607H192.749V157.811H191.238V159.412H195.015V153.005H191.238Z" fill="#2A9D8F"/>
<path d="M191.238 161.815V163.417H192.749V166.62H191.238V168.222H195.015V161.815H191.238Z" fill="#2A9D8F"/>
<path d="M234.289 2.43823H230.513V8.84534H234.289V2.43823Z" fill="#2A9D8F"/>
<path d="M234.289 12.8498H230.513V19.2569H234.289V12.8498Z" fill="#2A9D8F"/>
<path d="M234.289 24.0623H229.002V24.8631H234.289V24.0623Z" fill="#2A9D8F"/>
<path d="M234.289 75.3191H229.002V76.12H234.289V75.3191Z" fill="#2A9D8F"/>
<path d="M234.289 84.1289H229.002V84.9298H234.289V84.1289Z" fill="#2A9D8F"/>
<path d="M230.513 31.2704V32.872H232.024V36.0756H230.513V37.6772H234.289V31.2704H230.513Z" fill="#2A9D8F"/>
<path d="M230.513 51.2925V52.8941H232.024V56.0977H230.513V57.6998H234.289V51.2925H230.513Z" fill="#2A9D8F"/>
<path d="M230.513 92.1381V93.7396H232.024V96.9433H230.513V98.5448H234.289V92.1381H230.513Z" fill="#2A9D8F"/>
<path d="M277.341 72.1156H273.564V78.5227H277.341V72.1156Z" fill="#2A9D8F"/>
<path d="M277.341 82.5271H273.564V88.9342H277.341V82.5271Z" fill="#2A9D8F"/>
<path d="M277.341 93.7396H272.054V94.5405H277.341V93.7396Z" fill="#2A9D8F"/>
<path d="M277.341 144.996H272.054V145.797H277.341V144.996Z" fill="#2A9D8F"/>
<path d="M277.341 153.806H272.054V154.607H277.341V153.806Z" fill="#2A9D8F"/>
<path d="M273.564 100.948V102.549H275.075V105.753H273.564V107.355H277.341V100.948H273.564Z" fill="#2A9D8F"/>
<path d="M273.564 120.97V122.572H275.075V125.775H273.564V127.377H277.341V120.97H273.564Z" fill="#2A9D8F"/>
<path d="M273.564 161.815V163.417H275.075V166.62H273.564V168.222H277.341V161.815H273.564Z" fill="#2A9D8F"/>
<path d="M435 334.674H29.9497V336H435V334.674Z" fill="#2F2E41"/>
<path d="M113.673 177.843V204.829L117.099 221.437C117.099 221.437 116.61 231.816 117.099 234.93C117.589 238.044 116.61 243.234 113.673 243.234C110.737 243.234 109.269 251.018 109.269 251.018C109.269 251.018 108.29 254.132 105.843 254.651C103.395 255.17 103.395 254.651 103.395 254.651L101.438 259.841L60.8154 288.384L68.6462 309.143C68.6462 309.143 80.8819 304.473 81.8607 302.916C82.8396 301.359 91.1598 304.992 91.1598 301.359C91.1598 297.726 92.6281 288.384 95.5646 287.865C98.5012 287.346 122.972 275.41 122.972 275.41C122.972 275.41 135.697 260.36 136.676 254.651C137.655 248.942 142.06 232.854 142.06 232.854L154.296 254.651V298.245L152.338 321.599L173.873 318.485C173.873 318.485 171.915 303.954 173.873 301.878C175.83 299.802 178.767 274.891 176.809 271.777C174.851 268.663 177.788 254.651 176.809 252.575C175.83 250.499 176.32 235.449 173.873 231.297C171.425 227.145 156.743 184.589 156.743 184.589L113.673 177.843Z" fill="#2F2E41"/>
<path d="M155.274 320.561C155.274 320.561 147.933 333.535 152.827 335.092C157.722 336.649 167.021 335.092 168 335.092C168.978 335.092 186.598 335.611 186.598 335.611C186.598 335.611 198.344 333.016 198.344 329.384C198.344 325.751 191.002 325.751 188.555 325.232C186.108 324.713 170.936 318.485 170.936 318.485L155.274 320.561Z" fill="#2F2E41"/>
<path d="M63.0631 288.97C63.0631 288.97 48.9176 286.984 49.5156 292.365C50.1136 297.746 55.157 306.175 55.5461 307.127C55.8095 307.772 58.9008 315.939 60.8687 321.143C62.2911 324.958 64.4281 328.427 67.1506 331.342C69.0747 333.381 71.1718 335.016 72.5472 334.384C75.6909 332.94 72.7729 325.797 72.2494 323.209C71.7258 320.622 71.0846 303.384 71.0846 303.384L63.0631 288.97Z" fill="#2F2E41"/>
<path d="M161.392 91.952L177.054 53.5478C177.054 53.5478 175.586 49.9149 172.16 50.4339C172.16 50.4339 167.51 37.719 158.7 37.719C158.7 37.719 145.486 29.9344 141.571 37.719C141.571 37.719 133.25 45.5036 133.74 52.7693C134.229 60.035 134.719 65.2247 134.719 65.2247C134.719 65.2247 126.888 66.2627 128.356 70.4145C129.824 74.5663 130.314 74.5663 128.356 76.1232L126.398 77.6802C126.398 77.6802 85.7761 116.603 108.29 173.691L110.247 182.513V190.817C110.247 190.817 159.679 191.336 159.679 190.817C159.679 190.298 158.7 187.184 160.658 185.108C162.616 183.032 162.616 179.918 162.616 179.918C162.616 179.918 160.658 169.539 161.637 166.425C162.616 163.311 163.105 149.818 161.148 146.704C159.19 143.59 160.169 118.679 160.169 118.679L164.574 109.857L163.105 104.667L161.637 99.4772L161.392 91.952Z" fill="#8985A8"/>
<path opacity="0.1" d="M157.232 196.007C157.232 196.007 151.359 178.881 151.848 175.767C152.338 172.653 150.87 166.425 150.87 166.425L148.912 124.388C148.912 124.388 157.232 87.0218 138.634 80.7941C138.634 80.7941 133.928 82.9715 130.072 89.9784C126.259 91.7793 121.632 96.337 120.525 107.781C118.568 128.021 127.377 179.919 131.782 188.741C136.187 197.564 139.123 203.791 139.123 203.791L143.727 201.622C143.917 202.022 144.018 202.234 144.018 202.234L157.232 196.007Z" fill="black"/>
<path d="M159.924 87.2812C160.735 87.2812 161.392 86.5841 161.392 85.7243C161.392 84.8644 160.735 84.1674 159.924 84.1674C159.113 84.1674 158.456 84.8644 158.456 85.7243C158.456 86.5841 159.113 87.2812 159.924 87.2812Z" fill="#F2F2F2"/>
<path d="M160.413 85.7242H159.435V110.116H160.413V85.7242Z" fill="#3F3D56"/>
<path d="M142.305 197.823L146.22 206.646C146.22 206.646 155.03 203.532 155.03 201.975C155.03 200.418 151.114 193.671 151.114 193.671L142.305 197.823Z" fill="#FFB8B8"/>
<path d="M136.676 80.7941C136.676 80.7941 125.42 85.9838 123.462 106.224C121.504 126.464 130.314 178.362 134.719 187.184C139.123 196.007 142.06 202.234 142.06 202.234L155.275 196.007C155.275 196.007 149.401 178.881 149.891 175.767C150.38 172.653 148.912 166.425 148.912 166.425L146.954 124.388C146.954 124.388 155.275 87.0218 136.676 80.7941Z" fill="#8985A8"/>
</svg>
